<svg width="469" height="546" viewBox="0 0 469 546" fill="none" xmlns="http://www.w3.org/2000/svg">
<path d="M249.55 286.503C292.09 299.903 327.86 266.743 318.33 223.233C317.3 218.533 311.05 207.323 311.45 204.693C311.66 203.263 317.32 191.873 318.54 189.483C319.05 188.473 318.84 185.813 321.09 187.743C321.65 188.223 327.98 198.923 328.73 200.483C356.24 257.263 313.99 324.653 248.89 306.323C245.07 305.243 235.19 299.983 233 300.093C230.22 300.223 219.05 306.063 214.01 307.153C141.8 322.853 105.78 242.333 144.69 187.743L147.21 188.453L154.45 205.633C129.73 250.773 163.97 302.923 216.23 286.503C212.34 278.133 207.01 271.203 204.24 262.093C193.67 227.313 205.14 197.323 232.89 175.403C239.6 183.113 248.71 188.533 254.28 197.193C267.51 217.763 268.45 246.093 259.24 268.443C256.61 274.823 252.24 280.233 249.55 286.513V286.503ZM232.89 198.853C213.31 219.563 213.23 254.553 232.89 275.373C252.73 254.573 252.73 219.663 232.89 198.853Z" fill="#0E3852"/>
<path d="M153.3 172.903C152.04 171.733 156.79 164.753 157.72 163.123C177.77 128.373 201.8 95.7929 221.36 60.7229H245.65C265.1 95.8629 289.23 128.373 309.29 163.123C311.04 166.153 313.77 169.273 313.71 172.903H294.58L271.87 136.653L196.12 135.833L172.42 172.903H153.29H153.3ZM210.06 114.863H256.95L241.89 89.1929L226.68 88.8329L224.75 89.7229L210.06 114.853V114.863Z" fill="#0E3852"/>
<path d="M245.65 31.9229L223.25 31.8829C216.94 24.4029 208.8 18.2029 198.96 16.0429C196.02 11.7729 209.82 4.62287 212.91 3.48287C229.73 -2.71713 256.85 -1.49713 268.05 14.1829C259.99 19.3629 248.62 21.4329 245.65 31.9229ZM234.72 25.9429C236.44 20.3129 243.06 5.79287 231.73 7.39287C222.25 8.73287 231.62 28.3429 234.72 25.9429ZM224.54 15.1429C210.48 12.7029 220.37 25.9829 228.57 27.1629L224.54 15.1429ZM248.16 14.9829C245.8 13.8429 243.39 13.4529 241.19 15.1229L238.45 27.1829C243.46 24.3029 250.1 22.2029 248.16 14.9829Z" fill="#0E3852"/>
<path d="M244.61 34.5928H222.4V58.0528H244.61V34.5928Z" fill="#0E3852"/>
<path d="M0.4 441.003L38.2 357.003H53.56L91.48 441.003H75.16L42.64 365.283H48.88L16.48 441.003H0.4ZM17.8 421.563L22 409.323H67.36L71.56 421.563H17.8Z" fill="#0E3852"/>
<path d="M134.04 433.003V379.003H146.88V433.003H134.04ZM112.8 412.003V400.003H168.12V412.003H112.8Z" fill="#0E3852"/>
<path d="M234.64 442.203C228.08 442.203 222.04 441.123 216.52 438.963C211 436.803 206.2 433.803 202.12 429.963C198.04 426.043 194.88 421.483 192.64 416.283C190.4 411.003 189.28 405.243 189.28 399.003C189.28 392.763 190.4 387.043 192.64 381.843C194.88 376.563 198.04 372.003 202.12 368.163C206.2 364.243 211 361.203 216.52 359.043C222.04 356.883 228.04 355.803 234.52 355.803C241.08 355.803 247.08 356.883 252.52 359.043C258.04 361.203 262.84 364.243 266.92 368.163C271 372.003 274.16 376.563 276.4 381.843C278.64 387.043 279.76 392.763 279.76 399.003C279.76 405.243 278.64 411.003 276.4 416.283C274.16 421.563 271 426.123 266.92 429.963C262.84 433.803 258.04 436.803 252.52 438.963C247.08 441.123 241.12 442.203 234.64 442.203ZM234.52 428.523C238.76 428.523 242.68 427.803 246.28 426.363C249.88 424.923 253 422.883 255.64 420.243C258.28 417.523 260.32 414.403 261.76 410.883C263.28 407.283 264.04 403.323 264.04 399.003C264.04 394.683 263.28 390.763 261.76 387.243C260.32 383.643 258.28 380.523 255.64 377.883C253 375.163 249.88 373.083 246.28 371.643C242.68 370.203 238.76 369.483 234.52 369.483C230.28 369.483 226.36 370.203 222.76 371.643C219.24 373.083 216.12 375.163 213.4 377.883C210.76 380.523 208.68 383.643 207.16 387.243C205.72 390.763 205 394.683 205 399.003C205 403.243 205.72 407.163 207.16 410.763C208.68 414.363 210.76 417.523 213.4 420.243C216.04 422.883 219.16 424.923 222.76 426.363C226.36 427.803 230.28 428.523 234.52 428.523Z" fill="#0E3852"/>
<path d="M294.75 404.963V359.533H309.7V404.383C309.7 420.943 317.18 428.073 330.17 428.073C343.16 428.073 350.53 420.943 350.53 404.383V359.533H365.25V404.963C365.25 428.423 352.02 441.193 330.06 441.193C308.1 441.193 294.75 428.423 294.75 404.963Z" fill="#0E3852"/>
<path d="M389.03 359.533H424.22C450.33 359.533 468.15 375.633 468.15 399.783C468.15 423.933 450.32 440.033 424.22 440.033H389.03V359.533ZM423.53 427.393C441.47 427.393 453.09 416.463 453.09 399.793C453.09 383.123 441.47 372.193 423.53 372.193H403.98V427.393H423.53Z" fill="#0E3852"/>
<path d="M35.4 526.003V470.003H57.24C62.1467 470.003 66.3333 470.776 69.8 472.323C73.2667 473.87 75.9333 476.11 77.8 479.043C79.6667 481.976 80.6 485.47 80.6 489.523C80.6 493.576 79.6667 497.07 77.8 500.003C75.9333 502.883 73.2667 505.123 69.8 506.723C66.3333 508.27 62.1467 509.043 57.24 509.043H39.8L43.4 505.283V526.003H35.4ZM43.4 506.083L39.8 502.083H57C62.12 502.083 65.9867 500.99 68.6 498.803C71.2667 496.616 72.6 493.523 72.6 489.523C72.6 485.523 71.2667 482.43 68.6 480.243C65.9867 478.056 62.12 476.963 57 476.963H39.8L43.4 472.963V506.083ZM99.6331 494.163H128.433V500.963H99.6331V494.163ZM100.353 519.043H132.993V526.003H92.3531V470.003H131.873V476.963H100.353V519.043ZM145.947 526.003V470.003H167.787C172.694 470.003 176.88 470.776 180.347 472.323C183.814 473.87 186.48 476.11 188.347 479.043C190.214 481.976 191.147 485.47 191.147 489.523C191.147 493.576 190.214 497.07 188.347 500.003C186.48 502.883 183.814 505.096 180.347 506.643C176.88 508.19 172.694 508.963 167.787 508.963H150.347L153.947 505.283V526.003H145.947ZM183.387 526.003L169.147 505.683H177.707L192.107 526.003H183.387ZM153.947 506.083L150.347 502.163H167.547C172.667 502.163 176.534 501.07 179.147 498.883C181.814 496.643 183.147 493.523 183.147 489.523C183.147 485.523 181.814 482.43 179.147 480.243C176.534 478.056 172.667 476.963 167.547 476.963H150.347L153.947 472.963V506.083ZM211.272 496.483H240.152V503.363H211.272V496.483ZM212.072 526.003H204.072V470.003H243.592V476.963H212.072V526.003ZM278.053 526.643C270.693 526.643 264.906 524.536 260.693 520.323C256.48 516.11 254.373 509.95 254.373 501.843V470.003H262.373V501.523C262.373 507.763 263.733 512.323 266.453 515.203C269.226 518.083 273.12 519.523 278.133 519.523C283.2 519.523 287.093 518.083 289.813 515.203C292.586 512.323 293.973 507.763 293.973 501.523V470.003H301.733V501.843C301.733 509.95 299.626 516.11 295.413 520.323C291.253 524.536 285.466 526.643 278.053 526.643ZM318.134 526.003V470.003H324.694L349.814 512.323H346.294L371.094 470.003H377.654L377.734 526.003H370.054L369.974 482.083H371.814L349.734 519.203H346.054L323.814 482.083H325.814V526.003H318.134ZM401.821 494.163H430.621V500.963H401.821V494.163ZM402.541 519.043H435.181V526.003H394.541V470.003H434.061V476.963H402.541V519.043Z" fill="#0E3852"/>
</svg>
